<svg xmlns="http://www.w3.org/2000/svg" xmlns:xlink="http://www.w3.org/1999/xlink"
     viewBox="0 0 800 130" width="800" height="130">

  <defs>
    <!-- Glow: Ferrari Red -->
    <filter id="gR" x="-50%" y="-50%" width="200%" height="200%">
      <feGaussianBlur in="SourceGraphic" stdDeviation="5" result="blur"/>
      <feColorMatrix in="blur" type="matrix"
        values="2 0 0 0 0.1  0 0 0 0 0  0 0 0 0 0  0 0 0 1.8 0" result="c"/>
      <feMerge><feMergeNode in="c"/><feMergeNode in="SourceGraphic"/></feMerge>
    </filter>
    <!-- Glow: Red Bull Blue -->
    <filter id="gB" x="-50%" y="-50%" width="200%" height="200%">
      <feGaussianBlur in="SourceGraphic" stdDeviation="5" result="blur"/>
      <feColorMatrix in="blur" type="matrix"
        values="0 0 0 0 0  0 0.2 0 0 0  0 0 2.5 0 0.2  0 0 0 1.8 0" result="c"/>
      <feMerge><feMergeNode in="c"/><feMergeNode in="SourceGraphic"/></feMerge>
    </filter>
    <!-- Glow: Mercedes Teal -->
    <filter id="gT" x="-50%" y="-50%" width="200%" height="200%">
      <feGaussianBlur in="SourceGraphic" stdDeviation="5" result="blur"/>
      <feColorMatrix in="blur" type="matrix"
        values="0 0 0 0 0  0 1.8 0 0 0.2  0 0 1.2 0 0.2  0 0 0 1.8 0" result="c"/>
      <feMerge><feMergeNode in="c"/><feMergeNode in="SourceGraphic"/></feMerge>
    </filter>
    <!-- Text glow -->
    <filter id="tG">
      <feGaussianBlur stdDeviation="4" result="blur"/>
      <feMerge><feMergeNode in="blur"/><feMergeNode in="SourceGraphic"/></feMerge>
    </filter>

    <!-- ═══ RACE TRACK PATH ═══
         Rounded rect: x=25,y=15, w=750,h=100, rx=30
         Top-straight:   y=15, x=55→745
         Right-side:     x=775, y=45→85
         Bottom-straight:y=115, x=745→55
         Left-side:      x=25, y=85→45
    -->
    <path id="t"
      d="M 55,15 H 745
         a 30,30,0,0,1,30,30
         V 85
         a 30,30,0,0,1,-30,30
         H 55
         a 30,30,0,0,1,-30,-30
         V 45
         a 30,30,0,0,1,30,-30 Z"/>
  </defs>

  <!-- ──────────── BACKGROUND ──────────── -->
  <rect width="800" height="130" fill="#07071A" rx="10"/>

  <!-- Subtle center grid cross -->
  <line x1="0"   y1="65"  x2="800" y2="65"  stroke="#ffffff07" stroke-width="1"/>
  <line x1="400" y1="0"   x2="400" y2="130" stroke="#ffffff07" stroke-width="1"/>

  <!-- Stars -->
  <circle cx="160" cy="65" r="1.2" fill="#ffffff35"/>
  <circle cx="260" cy="65" r="0.8" fill="#ffffff25"/>
  <circle cx="540" cy="65" r="1.0" fill="#ffffff35"/>
  <circle cx="640" cy="65" r="0.8" fill="#ffffff25"/>
  <circle cx="200" cy="30" r="0.7" fill="#ffffff20"/>
  <circle cx="580" cy="100" r="0.7" fill="#ffffff20"/>

  <!-- ──────────── TRACK SURFACE ──────────── -->
  <!-- Deep shadow glow -->
  <use xlink:href="#t" href="#t" fill="none" stroke="#18183a" stroke-width="44"/>
  <!-- Asphalt base -->
  <use xlink:href="#t" href="#t" fill="none" stroke="#17172e" stroke-width="30"/>
  <!-- Asphalt highlight (slightly lighter center band) -->
  <use xlink:href="#t" href="#t" fill="none" stroke="#1e1e38" stroke-width="22"/>
  <!-- Track outer border line -->
  <use xlink:href="#t" href="#t" fill="none" stroke="#33335a" stroke-width="31"/>
  <use xlink:href="#t" href="#t" fill="none" stroke="#07071A" stroke-width="29.5"/>
  <!-- Track inner border line -->
  <use xlink:href="#t" href="#t" fill="none" stroke="#33335a" stroke-width="22"/>
  <use xlink:href="#t" href="#t" fill="none" stroke="#07071A" stroke-width="20.5"/>
  <!-- Center dashed white line -->
  <use xlink:href="#t" href="#t" fill="none" stroke="#ffffff1c" stroke-width="1.5" stroke-dasharray="14,22"/>

  <!-- ──────────── CORNER CURBS (red/white dashes) ──────────── -->
  <!-- Top-Right  — arc center (745,45), outer radius ~44 -->
  <path d="M 745,1 a 44,44,0,0,1,44,44"
        fill="none" stroke="#dd0000" stroke-width="5"
        stroke-dasharray="6.2,6.2" opacity="0.9"/>
  <path d="M 745,1 a 44,44,0,0,1,44,44"
        fill="none" stroke="#f0f0f0" stroke-width="5"
        stroke-dasharray="6.2,6.2" stroke-dashoffset="6.2" opacity="0.9"/>

  <!-- Bottom-Right — arc center (745,85) -->
  <path d="M 789,85 a 44,44,0,0,1,-44,44"
        fill="none" stroke="#dd0000" stroke-width="5"
        stroke-dasharray="6.2,6.2" opacity="0.9"/>
  <path d="M 789,85 a 44,44,0,0,1,-44,44"
        fill="none" stroke="#f0f0f0" stroke-width="5"
        stroke-dasharray="6.2,6.2" stroke-dashoffset="6.2" opacity="0.9"/>

  <!-- Top-Left — arc center (55,45) -->
  <path d="M 55,1 a 44,44,0,0,0,-44,44"
        fill="none" stroke="#dd0000" stroke-width="5"
        stroke-dasharray="6.2,6.2" opacity="0.9"/>
  <path d="M 55,1 a 44,44,0,0,0,-44,44"
        fill="none" stroke="#f0f0f0" stroke-width="5"
        stroke-dasharray="6.2,6.2" stroke-dashoffset="6.2" opacity="0.9"/>

  <!-- Bottom-Left — arc center (55,85) -->
  <path d="M 11,85 a 44,44,0,0,0,44,44"
        fill="none" stroke="#dd0000" stroke-width="5"
        stroke-dasharray="6.2,6.2" opacity="0.9"/>
  <path d="M 11,85 a 44,44,0,0,0,44,44"
        fill="none" stroke="#f0f0f0" stroke-width="5"
        stroke-dasharray="6.2,6.2" stroke-dashoffset="6.2" opacity="0.9"/>

  <!-- ──────────── START / FINISH LINE ──────────── -->
  <!-- Vertical stripe crossing the top straight at x≈400 -->
  <rect x="397" y="2"  width="4" height="6" fill="#f5f5f5" opacity="0.95"/>
  <rect x="401" y="2"  width="4" height="6" fill="#111"    opacity="0.95"/>
  <rect x="405" y="2"  width="4" height="6" fill="#f5f5f5" opacity="0.95"/>
  <rect x="397" y="8"  width="4" height="6" fill="#111"    opacity="0.95"/>
  <rect x="401" y="8"  width="4" height="6" fill="#f5f5f5" opacity="0.95"/>
  <rect x="405" y="8"  width="4" height="6" fill="#111"    opacity="0.95"/>

  <!-- ──────────── CENTER TRACK TEXT ──────────── -->
  <text x="400" y="57"
        font-family="'Courier New',Courier,monospace"
        font-size="15" font-weight="900"
        fill="#c4b0ff" text-anchor="middle" letter-spacing="4"
        filter="url(#tG)">ABHAY SINGH RATHORE</text>
  <text x="400" y="77"
        font-family="'Courier New',Courier,monospace"
        font-size="9" font-weight="600"
        fill="#6868a0" text-anchor="middle" letter-spacing="3">FULL-STACK  ·  GENAI  ·  OPEN SOURCE</text>

  <!-- ════════════════════════════════════════
       F1 CAR MACRO (used 3 times via <use>)
       Car faces +X direction (right).
       rotate="auto" on animateMotion rotates it.
  ════════════════════════════════════════ -->

  <!-- ──────────── FERRARI  #16  Red  dur=5.0s ──────────── -->
  <!-- Trails (begin offset = car_begin + lag, so car is ahead) -->
  <circle r="1.8" fill="#e8002d" opacity="0.20">
    <animateMotion dur="5s" begin="-4.40s" repeatCount="indefinite" rotate="auto">
      <mpath xlink:href="#t"/>
    </animateMotion>
  </circle>
  <circle r="2.5" fill="#e8002d" opacity="0.35">
    <animateMotion dur="5s" begin="-4.70s" repeatCount="indefinite" rotate="auto">
      <mpath xlink:href="#t"/>
    </animateMotion>
  </circle>
  <circle r="3.5" fill="#ff1111" opacity="0.55">
    <animateMotion dur="5s" begin="-4.88s" repeatCount="indefinite" rotate="auto">
      <mpath xlink:href="#t"/>
    </animateMotion>
  </circle>

  <!-- Ferrari Car -->
  <g filter="url(#gR)">
    <g>
      <!-- Chassis -->
      <rect x="-22" y="-5"  width="44" height="10" rx="5.5" fill="#e8002d"/>
      <!-- Cockpit halo -->
      <ellipse cx="-2" cy="0" rx="7.5" ry="4" fill="#1a0404"/>
      <!-- Nose cone -->
      <polygon points="22,-2.5 22,2.5 31,0" fill="#e8002d"/>
      <!-- Front wing (left/right relative to top-down) -->
      <rect x="18"  y="-10" width="11" height="4" rx="2" fill="#b80020"/>
      <rect x="18"  y="6"   width="11" height="4" rx="2" fill="#b80020"/>
      <!-- Rear wing -->
      <rect x="-30" y="-10.5" width="11" height="4" rx="2" fill="#b80020"/>
      <rect x="-30" y="6.5"   width="11" height="4" rx="2" fill="#b80020"/>
      <!-- Wheels (four rectangles) -->
      <rect x="7"   y="-11.5" width="12" height="7" rx="3.5" fill="#0d0d0d"/>
      <rect x="-18" y="-11.5" width="12" height="7" rx="3.5" fill="#0d0d0d"/>
      <rect x="7"   y="4.5"   width="12" height="7" rx="3.5" fill="#0d0d0d"/>
      <rect x="-18" y="4.5"   width="12" height="7" rx="3.5" fill="#0d0d0d"/>
      <!-- Car number -->
      <text x="0" y="2" font-size="6" fill="#ffffff" text-anchor="middle"
            font-family="'Courier New',monospace" font-weight="bold">16</text>
      <animateMotion dur="5s" begin="0s" repeatCount="indefinite" rotate="auto">
        <mpath xlink:href="#t"/>
      </animateMotion>
    </g>
  </g>

  <!-- ──────────── RED BULL  #1  Blue  dur=5.7s  (starts ~33% ahead) ──────────── -->
  <circle r="1.8" fill="#1e41ff" opacity="0.20">
    <animateMotion dur="5.7s" begin="-1.30s" repeatCount="indefinite" rotate="auto">
      <mpath xlink:href="#t"/>
    </animateMotion>
  </circle>
  <circle r="2.5" fill="#1e41ff" opacity="0.35">
    <animateMotion dur="5.7s" begin="-1.60s" repeatCount="indefinite" rotate="auto">
      <mpath xlink:href="#t"/>
    </animateMotion>
  </circle>
  <circle r="3.5" fill="#2255ff" opacity="0.55">
    <animateMotion dur="5.7s" begin="-1.78s" repeatCount="indefinite" rotate="auto">
      <mpath xlink:href="#t"/>
    </animateMotion>
  </circle>

  <!-- Red Bull Car -->
  <g filter="url(#gB)">
    <g>
      <rect x="-22" y="-5"  width="44" height="10" rx="5.5" fill="#1e41ff"/>
      <ellipse cx="-2" cy="0" rx="7.5" ry="4" fill="#030312"/>
      <polygon points="22,-2.5 22,2.5 31,0" fill="#1e41ff"/>
      <rect x="18"  y="-10" width="11" height="4" rx="2" fill="#1530cc"/>
      <rect x="18"  y="6"   width="11" height="4" rx="2" fill="#1530cc"/>
      <rect x="-30" y="-10.5" width="11" height="4" rx="2" fill="#1530cc"/>
      <rect x="-30" y="6.5"   width="11" height="4" rx="2" fill="#1530cc"/>
      <rect x="7"   y="-11.5" width="12" height="7" rx="3.5" fill="#0d0d0d"/>
      <rect x="-18" y="-11.5" width="12" height="7" rx="3.5" fill="#0d0d0d"/>
      <rect x="7"   y="4.5"   width="12" height="7" rx="3.5" fill="#0d0d0d"/>
      <rect x="-18" y="4.5"   width="12" height="7" rx="3.5" fill="#0d0d0d"/>
      <text x="0" y="2" font-size="6" fill="#ffffff" text-anchor="middle"
            font-family="'Courier New',monospace" font-weight="bold">1</text>
      <animateMotion dur="5.7s" begin="-1.9s" repeatCount="indefinite" rotate="auto">
        <mpath xlink:href="#t"/>
      </animateMotion>
    </g>
  </g>

  <!-- ──────────── MERCEDES  #44  Teal  dur=6.4s  (starts ~66% ahead) ──────────── -->
  <circle r="1.8" fill="#00d2be" opacity="0.20">
    <animateMotion dur="6.4s" begin="-3.67s" repeatCount="indefinite" rotate="auto">
      <mpath xlink:href="#t"/>
    </animateMotion>
  </circle>
  <circle r="2.5" fill="#00d2be" opacity="0.35">
    <animateMotion dur="6.4s" begin="-3.97s" repeatCount="indefinite" rotate="auto">
      <mpath xlink:href="#t"/>
    </animateMotion>
  </circle>
  <circle r="3.5" fill="#00eecc" opacity="0.55">
    <animateMotion dur="6.4s" begin="-4.15s" repeatCount="indefinite" rotate="auto">
      <mpath xlink:href="#t"/>
    </animateMotion>
  </circle>

  <!-- Mercedes Car -->
  <g filter="url(#gT)">
    <g>
      <rect x="-22" y="-5"  width="44" height="10" rx="5.5" fill="#00d2be"/>
      <ellipse cx="-2" cy="0" rx="7.5" ry="4" fill="#001714"/>
      <polygon points="22,-2.5 22,2.5 31,0" fill="#00d2be"/>
      <rect x="18"  y="-10" width="11" height="4" rx="2" fill="#00a090"/>
      <rect x="18"  y="6"   width="11" height="4" rx="2" fill="#00a090"/>
      <rect x="-30" y="-10.5" width="11" height="4" rx="2" fill="#00a090"/>
      <rect x="-30" y="6.5"   width="11" height="4" rx="2" fill="#00a090"/>
      <rect x="7"   y="-11.5" width="12" height="7" rx="3.5" fill="#0d0d0d"/>
      <rect x="-18" y="-11.5" width="12" height="7" rx="3.5" fill="#0d0d0d"/>
      <rect x="7"   y="4.5"   width="12" height="7" rx="3.5" fill="#0d0d0d"/>
      <rect x="-18" y="4.5"   width="12" height="7" rx="3.5" fill="#0d0d0d"/>
      <text x="0" y="2" font-size="6" fill="#ffffff" text-anchor="middle"
            font-family="'Courier New',monospace" font-weight="bold">44</text>
      <animateMotion dur="6.4s" begin="-4.27s" repeatCount="indefinite" rotate="auto">
        <mpath xlink:href="#t"/>
      </animateMotion>
    </g>
  </g>

</svg>
